# xmcd
#
# Track frame offsets:
#	182
#	11707
#	25812
#	41562
#	55767
#	71160
#	83445
#	95835
#	110200
#	130197
#	138095
#	152957
#	163145
#	176970
#	191282
#	202032
#	214035
#	226037
#	238327
#	251470
#	263677
#	271557
#	281090
#	293307
#	306672
#
# Disc length: 4272 seconds
# Revision: 0
# Processed by: cddbd v1.5.2PL0 Copyright (c) Steve Scherf et al.
# Submitted via: dBpowerAMP V12.0
#
DISCID=6a10ae19
DTITLE=Amália Rodrigues - Fado es ... Amália Rodrigues
DYEAR=1990
DGENRE=Fado
TTITLE0=O cochicho
TTITLE1=La salvadora
TTITLE2=Alamares
TTITLE3=Mi niña bonita
TTITLE4=Eu disse adeus a casinha
TTITLE5=Gorrioncillo
TTITLE6=Amantes separados
TTITLE7=Petenera portuguesa
TTITLE8=Agua e mel
TTITLE9=Lerele
TTITLE10=Estranha forma de vida
TTITLE11=No me tires indire
TTITLE12=Ai esta pena de mim
TTITLE13=Fallaste corazón
TTITLE14=Oica la o senhor vinho
TTITLE15=Tani
TTITLE16=Maria Lisboa
TTITLE17=Doce cascabeles
TTITLE18=Madrugada de Alfama
TTITLE19=Por un amor
TTITLE20=Caracois
TTITLE21=Asitunera
TTITLE22=Una casa portuguesa
TTITLE23=La la la
TTITLE24=Havemos de ir a Viana
EXTD=
EXTT0=
EXTT1=
EXTT2=
EXTT3=
EXTT4=
EXTT5=
EXTT6=
EXTT7=
EXTT8=
EXTT9=
EXTT10=
EXTT11=
EXTT12=
EXTT13=
EXTT14=
EXTT15=
EXTT16=
EXTT17=
EXTT18=
EXTT19=
EXTT20=
EXTT21=
EXTT22=
EXTT23=
EXTT24=
PLAYORDER=
